<svg width="23" height="24" viewBox="0 0 23 24" fill="none" xmlns="http://www.w3.org/2000/svg">
<path d="M11.5 0.75C11.873 0.75 12.2306 0.898158 12.4944 1.16188C12.7581 1.4256 12.9062 1.78329 12.9062 2.15625V10.5938H21.3438C21.7167 10.5938 22.0744 10.7419 22.3381 11.0056C22.6018 11.2694 22.75 11.627 22.75 12C22.75 12.373 22.6018 12.7306 22.3381 12.9944C22.0744 13.2581 21.7167 13.4062 21.3438 13.4062H12.9062V21.8438C12.9062 22.2167 12.7581 22.5744 12.4944 22.8381C12.2306 23.1018 11.873 23.25 11.5 23.25C11.127 23.25 10.7694 23.1018 10.5056 22.8381C10.2419 22.5744 10.0938 22.2167 10.0938 21.8438V13.4062H1.65625C1.28329 13.4062 0.925604 13.2581 0.661881 12.9944C0.398158 12.7306 0.25 12.373 0.25 12C0.25 11.627 0.398158 11.2694 0.661881 11.0056C0.925604 10.7419 1.28329 10.5938 1.65625 10.5938H10.0938V2.15625C10.0938 1.78329 10.2419 1.4256 10.5056 1.16188C10.7694 0.898158 11.127 0.75 11.5 0.75Z" fill="white"/>
</svg>
