<svg width="24" height="25" viewBox="0 0 24 25" fill="none" xmlns="http://www.w3.org/2000/svg">
<rect width="24" height="25" fill="#1E1E1E"/>
<g id="creation form">
<rect x="-788" y="-41" width="851" height="833" rx="20" fill="#E8EFFA"/>
<path id="Vector" d="M0.747081 1.06522C0.903171 0.908728 1.0886 0.784568 1.29274 0.699853C1.49689 0.615138 1.71574 0.571533 1.93677 0.571533C2.15779 0.571533 2.37664 0.615138 2.58079 0.699853C2.78493 0.784568 2.97036 0.908728 3.12645 1.06522L12.0188 9.96139L20.9112 1.06522C21.0675 0.908981 21.2529 0.785045 21.4571 0.700489C21.6612 0.615934 21.88 0.572413 22.1009 0.572413C22.3218 0.572413 22.5406 0.615934 22.7448 0.700489C22.9489 0.785045 23.1344 0.908981 23.2906 1.06522C23.4468 1.22146 23.5707 1.40694 23.6553 1.61108C23.7399 1.81521 23.7834 2.03401 23.7834 2.25496C23.7834 2.47592 23.7399 2.69471 23.6553 2.89884C23.5707 3.10298 23.4468 3.28846 23.2906 3.4447L14.3948 12.3375L23.2906 21.2303C23.4468 21.3866 23.5707 21.572 23.6553 21.7762C23.7399 21.9803 23.7834 22.1991 23.7834 22.4201C23.7834 22.641 23.7399 22.8598 23.6553 23.0639C23.5707 23.2681 23.4468 23.4536 23.2906 23.6098C23.1344 23.766 22.9489 23.89 22.7448 23.9745C22.5406 24.0591 22.3218 24.1026 22.1009 24.1026C21.88 24.1026 21.6612 24.0591 21.4571 23.9745C21.2529 23.89 21.0675 23.766 20.9112 23.6098L12.0188 14.7136L3.12645 23.6098C2.97022 23.766 2.78475 23.89 2.58062 23.9745C2.37649 24.0591 2.15771 24.1026 1.93677 24.1026C1.71582 24.1026 1.49704 24.0591 1.29291 23.9745C1.08879 23.89 0.903313 23.766 0.747081 23.6098C0.59085 23.4536 0.46692 23.2681 0.382368 23.0639C0.297816 22.8598 0.254298 22.641 0.254298 22.4201C0.254298 22.1991 0.297816 21.9803 0.382368 21.7762C0.46692 21.572 0.59085 21.3866 0.747081 21.2303L9.64283 12.3375L0.747081 3.4447C0.590597 3.28861 0.466443 3.10317 0.381732 2.89901C0.297021 2.69486 0.253418 2.476 0.253418 2.25496C0.253418 2.03393 0.297021 1.81506 0.381732 1.61091C0.466443 1.40675 0.590597 1.22132 0.747081 1.06522Z" fill="#11BACD"/>
</g>
</svg>
