<svg viewBox="0 0 300 300" xml:space="preserve" xmlns="http://www.w3.org/2000/svg" enable-background="new 0 0 300 300"><circle cx="154" cy="154" r="120" fill-rule="evenodd" clip-rule="evenodd" fill="none" stroke="#ffffff" stroke-width="8" stroke-linecap="round" stroke-linejoin="round" stroke-miterlimit="10" class="stroke-000000"></circle><path d="M164.457 176.857C181.468 173.175 194 160.774 194 146c0-5.227-1.598-10.146-4.376-14.503C191.706 113.183 183.712 94 183.712 94c-7.518 4.856-14.388 17.114-16.795 21.738C162.86 114.63 158.526 114 154 114s-8.86.63-12.917 1.738c-2.407-4.624-9.276-16.882-16.794-21.738 0 0-7.995 19.183-5.913 37.497C115.598 135.854 114 140.773 114 146c0 14.774 12.532 27.175 29.543 30.857C126.532 186.064 114 217.065 114 254c0 4.554.19 9.02.556 13.367C126.91 271.664 140.182 274 154 274s27.09-2.336 39.444-6.633c.366-4.347.556-8.813.556-13.367 0-36.935-12.532-67.936-29.543-77.143z" fill-rule="evenodd" clip-rule="evenodd" fill="none" stroke="#ffffff" stroke-width="8" stroke-linecap="round" stroke-linejoin="round" stroke-miterlimit="10" class="stroke-000000"></path></svg>