<svg width="30" height="30" viewBox="0 0 30 30" fill="none" xmlns="http://www.w3.org/2000/svg">
<g id="ClockHistory">
<path id="Vector" d="M15.9656 1.91063C15.6443 1.8869 15.3222 1.87502 15 1.875V0C15.3685 0.000179677 15.7369 0.013939 16.1044 0.04125L15.9656 1.91063ZM19.7231 2.75437C19.1221 2.52243 18.5048 2.33505 17.8763 2.19375L18.2869 0.36375C19.0069 0.525 19.7106 0.73875 20.3981 1.005L19.7231 2.75437ZM22.2919 4.08562C22.0238 3.90683 21.7492 3.73796 21.4687 3.57938L22.3931 1.94813C23.0343 2.31123 23.6478 2.72109 24.2288 3.17437L23.0756 4.65375C22.8214 4.45544 22.56 4.26656 22.2919 4.0875V4.08562ZM25.7306 7.44187C25.3597 6.915 24.9505 6.41615 24.5062 5.94938L25.8637 4.65562C26.3712 5.19187 26.8381 5.76062 27.2644 6.36187L25.7306 7.44187ZM27.1256 9.97688C27.0027 9.67956 26.8688 9.38686 26.7244 9.09938L28.3988 8.25562C28.7297 8.91398 29.0117 9.59582 29.2425 10.2956L27.4613 10.8825C27.3605 10.5766 27.2486 10.2745 27.1256 9.97688ZM28.1194 14.6775C28.1041 14.0331 28.0415 13.3908 27.9319 12.7556L29.7787 12.4369C29.9038 13.1619 29.9763 13.8931 29.9963 14.6306L28.1194 14.6775ZM27.8738 17.5613C27.9363 17.2437 27.9869 16.925 28.0256 16.605L29.8875 16.8356C29.7971 17.5671 29.653 18.291 29.4563 19.0012L27.6488 18.5006C27.735 18.1919 27.81 17.8787 27.8738 17.5613ZM26.0887 22.0219C26.4337 21.4769 26.7375 20.9094 27 20.3194L28.7137 21.0787C28.4138 21.7537 28.0669 22.4025 27.6731 23.025L26.0887 22.0219ZM24.2812 24.2812C24.51 24.0525 24.7288 23.8162 24.9375 23.5725L26.3587 24.7969C26.1182 25.076 25.8674 25.3462 25.6069 25.6069L24.2812 24.2812Z" fill="#4E5983"/>
<path id="Vector_2" d="M15 1.875C12.8416 1.87516 10.7166 2.40759 8.81321 3.42514C6.90977 4.44268 5.28665 5.91394 4.0876 7.70859C2.88856 9.50325 2.15061 11.5659 1.93911 13.7139C1.72761 15.8618 2.04909 18.0288 2.87508 20.0229C3.70107 22.0169 5.00606 23.7765 6.67448 25.1457C8.34291 26.515 10.3233 27.4516 12.4401 27.8728C14.557 28.2939 16.745 28.1864 18.8105 27.56C20.8759 26.9335 22.755 25.8074 24.2812 24.2813L25.6069 25.6069C23.8626 27.3521 21.7148 28.6401 19.3538 29.3569C16.9928 30.0736 14.4914 30.1969 12.0714 29.7159C9.65129 29.2349 7.38723 28.1644 5.47978 26.5992C3.57232 25.034 2.08038 23.0225 1.13612 20.7429C0.191873 18.4633 -0.175528 15.986 0.0664742 13.5305C0.308476 11.075 1.15241 8.71706 2.5235 6.66566C3.89459 4.61426 5.7505 2.93271 7.9268 1.77001C10.1031 0.607303 12.5326 -0.000653873 15 5.27734e-07V1.875Z" fill="#4E5983"/>
<path id="Vector_3" d="M14.0625 5.625C14.3111 5.625 14.5496 5.72377 14.7254 5.89959C14.9012 6.0754 15 6.31386 15 6.5625V16.3313L21.09 19.8112C21.2996 19.9377 21.4514 20.1411 21.5131 20.378C21.5747 20.615 21.5412 20.8666 21.4197 21.0791C21.2983 21.2917 21.0985 21.4483 20.8631 21.5155C20.6277 21.5827 20.3754 21.5551 20.16 21.4388L13.5975 17.6888C13.454 17.6068 13.3347 17.4884 13.2518 17.3455C13.1688 17.2025 13.1251 17.0402 13.125 16.875V6.5625C13.125 6.31386 13.2238 6.0754 13.3996 5.89959C13.5754 5.72377 13.8139 5.625 14.0625 5.625Z" fill="#4E5983"/>
</g>
</svg>
