<svg width="185" height="99" viewBox="0 0 185 99" fill="none" xmlns="http://www.w3.org/2000/svg">
<rect width="185" height="99" fill="white"/>
<g filter="url(#filter0_d_2_5)">
<path d="M13.536 35.8C16.752 35.8 19.272 36.568 21.096 38.104C22.92 39.64 23.832 41.752 23.832 44.44C23.832 47.128 22.92 49.24 21.096 50.776C19.272 52.288 16.752 53.044 13.536 53.044H6.768V61H4.104V35.8H13.536ZM13.464 50.704C15.96 50.704 17.868 50.164 19.188 49.084C20.508 47.98 21.168 46.432 21.168 44.44C21.168 42.4 20.508 40.84 19.188 39.76C17.868 38.656 15.96 38.104 13.464 38.104H6.768V50.704H13.464ZM46.2268 42.064V61H43.7788V57.256C43.0108 58.528 41.9908 59.5 40.7188 60.172C39.4708 60.844 38.0548 61.18 36.4708 61.18C34.6948 61.18 33.0868 60.772 31.6468 59.956C30.2068 59.14 29.0788 58 28.2628 56.536C27.4468 55.072 27.0388 53.404 27.0388 51.532C27.0388 49.66 27.4468 47.992 28.2628 46.528C29.0788 45.064 30.2068 43.936 31.6468 43.144C33.0868 42.328 34.6948 41.92 36.4708 41.92C38.0068 41.92 39.3868 42.244 40.6108 42.892C41.8588 43.516 42.8788 44.44 43.6708 45.664V42.064H46.2268ZM36.6868 58.912C38.0068 58.912 39.1948 58.612 40.2508 58.012C41.3308 57.388 42.1708 56.512 42.7708 55.384C43.3948 54.256 43.7068 52.972 43.7068 51.532C43.7068 50.092 43.3948 48.808 42.7708 47.68C42.1708 46.552 41.3308 45.688 40.2508 45.088C39.1948 44.464 38.0068 44.152 36.6868 44.152C35.3428 44.152 34.1308 44.464 33.0508 45.088C31.9948 45.688 31.1548 46.552 30.5308 47.68C29.9308 48.808 29.6308 50.092 29.6308 51.532C29.6308 52.972 29.9308 54.256 30.5308 55.384C31.1548 56.512 31.9948 57.388 33.0508 58.012C34.1308 58.612 35.3428 58.912 36.6868 58.912ZM62.9933 41.92C65.3693 41.92 67.2533 42.616 68.6453 44.008C70.0613 45.376 70.7693 47.38 70.7693 50.02V61H68.2133V50.272C68.2133 48.304 67.7213 46.804 66.7373 45.772C65.7533 44.74 64.3493 44.224 62.5253 44.224C60.4853 44.224 58.8653 44.836 57.6653 46.06C56.4893 47.26 55.9013 48.928 55.9013 51.064V61H53.3453V42.064H55.7933V45.556C56.4893 44.404 57.4493 43.516 58.6733 42.892C59.9213 42.244 61.3613 41.92 62.9933 41.92ZM85.5188 61.18C83.6948 61.18 82.0508 60.772 80.5868 59.956C79.1228 59.116 77.9708 57.964 77.1308 56.5C76.2908 55.036 75.8708 53.38 75.8708 51.532C75.8708 49.684 76.2908 48.028 77.1308 46.564C77.9708 45.1 79.1228 43.96 80.5868 43.144C82.0508 42.328 83.6948 41.92 85.5188 41.92C87.3428 41.92 88.9868 42.328 90.4508 43.144C91.9148 43.96 93.0548 45.1 93.8708 46.564C94.7108 48.028 95.1308 49.684 95.1308 51.532C95.1308 53.38 94.7108 55.036 93.8708 56.5C93.0548 57.964 91.9148 59.116 90.4508 59.956C88.9868 60.772 87.3428 61.18 85.5188 61.18ZM85.5188 58.912C86.8628 58.912 88.0628 58.612 89.1188 58.012C90.1988 57.388 91.0388 56.512 91.6388 55.384C92.2388 54.256 92.5388 52.972 92.5388 51.532C92.5388 50.092 92.2388 48.808 91.6388 47.68C91.0388 46.552 90.1988 45.688 89.1188 45.088C88.0628 44.464 86.8628 44.152 85.5188 44.152C84.1748 44.152 82.9628 44.464 81.8828 45.088C80.8268 45.688 79.9868 46.552 79.3628 47.68C78.7628 48.808 78.4628 50.092 78.4628 51.532C78.4628 52.972 78.7628 54.256 79.3628 55.384C79.9868 56.512 80.8268 57.388 81.8828 58.012C82.9628 58.612 84.1748 58.912 85.5188 58.912ZM118.097 61L112.337 52.9C111.689 52.972 111.017 53.008 110.321 53.008H103.553V61H100.889V35.8H110.321C113.537 35.8 116.057 36.568 117.881 38.104C119.705 39.64 120.617 41.752 120.617 44.44C120.617 46.408 120.113 48.076 119.105 49.444C118.121 50.788 116.705 51.76 114.857 52.36L121.013 61H118.097ZM110.249 50.74C112.745 50.74 114.653 50.188 115.973 49.084C117.293 47.98 117.953 46.432 117.953 44.44C117.953 42.4 117.293 40.84 115.973 39.76C114.653 38.656 112.745 38.104 110.249 38.104H103.553V50.74H110.249ZM126.365 42.064H128.921V61H126.365V42.064ZM127.661 37.924C127.133 37.924 126.689 37.744 126.329 37.384C125.969 37.024 125.789 36.592 125.789 36.088C125.789 35.608 125.969 35.188 126.329 34.828C126.689 34.468 127.133 34.288 127.661 34.288C128.189 34.288 128.633 34.468 128.993 34.828C129.353 35.164 129.533 35.572 129.533 36.052C129.533 36.58 129.353 37.024 128.993 37.384C128.633 37.744 128.189 37.924 127.661 37.924ZM145.681 41.92C148.057 41.92 149.941 42.616 151.333 44.008C152.749 45.376 153.457 47.38 153.457 50.02V61H150.901V50.272C150.901 48.304 150.409 46.804 149.425 45.772C148.441 44.74 147.037 44.224 145.213 44.224C143.173 44.224 141.553 44.836 140.353 46.06C139.177 47.26 138.589 48.928 138.589 51.064V61H136.033V34.288H138.589V45.376C139.285 44.272 140.245 43.42 141.469 42.82C142.693 42.22 144.097 41.92 145.681 41.92ZM177.746 42.064V61H175.298V57.256C174.53 58.528 173.51 59.5 172.238 60.172C170.99 60.844 169.574 61.18 167.99 61.18C166.214 61.18 164.606 60.772 163.166 59.956C161.726 59.14 160.598 58 159.782 56.536C158.966 55.072 158.558 53.404 158.558 51.532C158.558 49.66 158.966 47.992 159.782 46.528C160.598 45.064 161.726 43.936 163.166 43.144C164.606 42.328 166.214 41.92 167.99 41.92C169.526 41.92 170.906 42.244 172.13 42.892C173.378 43.516 174.398 44.44 175.19 45.664V42.064H177.746ZM168.206 58.912C169.526 58.912 170.714 58.612 171.77 58.012C172.85 57.388 173.69 56.512 174.29 55.384C174.914 54.256 175.226 52.972 175.226 51.532C175.226 50.092 174.914 48.808 174.29 47.68C173.69 46.552 172.85 45.688 171.77 45.088C170.714 44.464 169.526 44.152 168.206 44.152C166.862 44.152 165.65 44.464 164.57 45.088C163.514 45.688 162.674 46.552 162.05 47.68C161.45 48.808 161.15 50.092 161.15 51.532C161.15 52.972 161.45 54.256 162.05 55.384C162.674 56.512 163.514 57.388 164.57 58.012C165.65 58.612 166.862 58.912 168.206 58.912Z" fill="url(#paint0_linear_2_5)"/>
</g>
<defs>
<filter id="filter0_d_2_5" x="0.104" y="34.288" width="181.642" height="34.892" filterUnits="userSpaceOnUse" color-interpolation-filters="sRGB">
<feFlood flood-opacity="0" result="BackgroundImageFix"/>
<feColorMatrix in="SourceAlpha" type="matrix" values="0 0 0 0 0 0 0 0 0 0 0 0 0 0 0 0 0 0 127 0" result="hardAlpha"/>
<feOffset dy="4"/>
<feGaussianBlur stdDeviation="2"/>
<feComposite in2="hardAlpha" operator="out"/>
<feColorMatrix type="matrix" values="0 0 0 0 0 0 0 0 0 0 0 0 0 0 0 0 0 0 0.25 0"/>
<feBlend mode="normal" in2="BackgroundImageFix" result="effect1_dropShadow_2_5"/>
<feBlend mode="normal" in="SourceGraphic" in2="effect1_dropShadow_2_5" result="shape"/>
</filter>
<linearGradient id="paint0_linear_2_5" x1="4.45783" y1="42.6364" x2="118.133" y2="42.6364" gradientUnits="userSpaceOnUse">
<stop stop-color="#3498DB"/>
<stop offset="0.701516" stop-color="#9B59B6"/>
</linearGradient>
</defs>
</svg>
